<svg width="46" height="45" viewBox="0 0 46 45" fill="none" xmlns="http://www.w3.org/2000/svg">
<g clip-path="url(#clip0_136320_38)">
<path d="M18.4623 22.5C18.4623 24.8785 20.3904 26.8066 22.7689 26.8066C25.1475 26.8066 27.0756 24.8785 27.0756 22.5C27.0756 20.1215 25.1475 18.1934 22.7689 18.1934C20.3904 18.1934 18.4623 20.1215 18.4623 22.5Z" fill="#CACACA"/>
<path d="M12.6972 14.8803C12.9042 14.3194 13.2345 13.8116 13.6637 13.3948C14.0805 12.9656 14.5879 12.6354 15.1492 12.4283C15.6045 12.2515 16.2884 12.0411 17.548 11.9837C18.9107 11.9216 19.3192 11.9082 22.7689 11.9082C26.219 11.9082 26.6275 11.9212 27.9898 11.9834C29.2495 12.0411 29.9337 12.2515 30.3886 12.4283C30.95 12.6354 31.4577 12.9656 31.8742 13.3948C32.3033 13.8116 32.6336 14.319 32.841 14.8803C33.0178 15.3356 33.2282 16.0198 33.2856 17.2795C33.3477 18.6418 33.3611 19.0503 33.3611 22.5004C33.3611 25.9501 33.3477 26.3587 33.2856 27.7213C33.2282 28.981 33.0178 29.6649 32.841 30.1201C32.6336 30.6814 32.3037 31.1889 31.8745 31.6057C31.4577 32.0348 30.9503 32.3651 30.389 32.5721C29.9337 32.7493 29.2495 32.9597 27.9898 33.0171C26.6275 33.0792 26.2193 33.0922 22.7693 33.0922C19.3189 33.0922 18.9103 33.0792 17.5484 33.0171C16.2887 32.9597 15.6045 32.7493 15.1492 32.5721C14.0224 32.1375 13.1319 31.2469 12.6972 30.1201C12.5204 29.6649 12.3099 28.981 12.2523 27.7213C12.1901 26.3587 12.1771 25.9501 12.1771 22.5004C12.1771 19.0503 12.1901 18.6418 12.2523 17.2795C12.3096 16.0198 12.5201 15.3356 12.6972 14.8803ZM22.7689 29.1344C26.4332 29.1344 29.4036 26.1643 29.4036 22.5001C29.4036 18.8358 26.4332 15.8657 22.7689 15.8657C19.105 15.8657 16.1346 18.8358 16.1346 22.5001C16.1346 26.1643 19.105 29.1344 22.7689 29.1344ZM15.8723 17.1538C16.7285 17.1538 17.4227 16.4596 17.4227 15.6034C17.4227 14.7471 16.7285 14.0529 15.8723 14.0529C15.016 14.0529 14.3218 14.7471 14.3218 15.6034C14.3222 16.4596 15.016 17.1538 15.8723 17.1538Z" fill="#CACACA"/>
<path d="M22.9655 0C35.2814 0 45.2689 9.98747 45.2689 22.3034C45.2689 34.6194 35.2814 44.6069 22.9655 44.6069C10.6495 44.6069 0.662052 34.6194 0.662052 22.3034C0.662052 9.98747 10.6495 0 22.9655 0ZM10.2357 27.5836C10.2976 28.9469 10.5144 29.8777 10.8309 30.6924C11.4962 32.4127 12.8562 33.7727 14.5765 34.438C15.3909 34.7545 16.322 34.971 17.685 35.0332C19.0507 35.0955 19.487 35.1105 22.9651 35.1105C26.4436 35.1105 26.8795 35.0955 28.2456 35.0332C29.6086 34.971 30.5397 34.7545 31.3541 34.438C32.209 34.1164 32.9829 33.6124 33.6227 32.9607C34.2741 32.3212 34.7781 31.547 35.0997 30.6924C35.4162 29.878 35.633 28.9469 35.6949 27.5839C35.7579 26.2178 35.7725 25.7815 35.7725 22.3034C35.7725 18.8253 35.7579 18.389 35.6953 17.0233C35.6333 15.66 35.4169 14.7292 35.1004 13.9145C34.7788 13.0599 34.2744 12.2857 33.6227 11.6462C32.9832 10.9945 32.209 10.4905 31.3545 10.1689C30.5397 9.85236 29.6089 9.63592 28.2456 9.57364C26.8799 9.51136 26.4436 9.49638 22.9655 9.49638C19.4874 9.49638 19.0511 9.51136 17.6854 9.57398C16.322 9.63592 15.3912 9.85236 14.5765 10.1685C13.722 10.4901 12.9477 10.9945 12.3079 11.6462C11.6565 12.286 11.1522 13.0599 10.8309 13.9145C10.5141 14.7292 10.2976 15.66 10.2353 17.0233C10.1731 18.389 10.1584 18.8253 10.1584 22.3034C10.1584 25.7815 10.1731 26.2178 10.2357 27.5836Z" fill="#CACACA"/>
</g>
<defs>
<clipPath id="clip0_136320_38">
<rect width="45" height="45" fill="white" transform="matrix(-1 0 0 1 45.3451 0.000976562)"/>
</clipPath>
</defs>
</svg>
