<svg width="47" height="45" viewBox="0 0 47 45" fill="none" xmlns="http://www.w3.org/2000/svg">
<path d="M23.4416 0C10.4956 0 0 10.0736 0 22.5C0 34.9264 10.4956 45 23.4416 45C36.3876 45 46.8832 34.9264 46.8832 22.5C46.8832 10.0736 36.3876 0 23.4416 0ZM35.3324 24.9335C36.425 25.9577 37.5809 26.9217 38.5617 28.0519C38.9963 28.5519 39.4059 29.0688 39.7176 29.6503C40.1627 30.4794 39.7608 31.3886 38.9876 31.4379L34.1852 31.4369C32.9448 31.5354 31.9578 31.0553 31.1256 30.2414C30.4614 29.5927 29.845 28.8999 29.2052 28.2292C28.9438 27.9539 28.6685 27.6947 28.3405 27.4907C27.6858 27.0819 27.1169 27.2072 26.7419 27.8636C26.3596 28.5316 26.2723 29.2719 26.2359 30.0153C26.1836 31.1022 25.8421 31.3863 24.7059 31.4374C22.278 31.5465 19.9744 31.1929 17.8334 30.0181C15.9446 28.9818 14.4827 27.5193 13.2088 25.8634C10.7282 22.6353 8.82843 19.0924 7.12145 15.4478C6.73727 14.627 7.01833 14.1878 7.96175 14.1707C9.52916 14.1417 11.0966 14.1454 12.664 14.1694C13.3019 14.179 13.7239 14.5294 13.969 15.1071C14.816 17.1074 15.8544 19.0105 17.1556 20.7755C17.5024 21.2455 17.8564 21.7142 18.3605 22.0461C18.9168 22.4125 19.3408 22.2915 19.6032 21.6953C19.771 21.3164 19.8435 20.9113 19.8799 20.5053C20.0046 19.1145 20.0195 17.7242 19.8036 16.339C19.6694 15.4722 19.1614 14.9124 18.2612 14.7485C17.8027 14.6652 17.8698 14.5022 18.0928 14.2508C18.4799 13.8163 18.8425 13.5474 19.5672 13.5474L24.9932 13.5465C25.8483 13.7076 26.0402 14.0759 26.1563 14.9027L26.1611 20.6903C26.151 21.0103 26.3284 21.9586 26.927 22.1681C27.4066 22.32 27.7232 21.9508 28.01 21.6594C29.3112 20.334 30.2383 18.7697 31.0686 17.1506C31.435 16.4366 31.7511 15.6977 32.058 14.9575C32.2863 14.4101 32.6412 14.1408 33.2849 14.15L38.5099 14.156C38.6639 14.156 38.8202 14.1574 38.9728 14.1827C39.8533 14.3273 40.0946 14.6909 39.8222 15.5154C39.3934 16.8109 38.5603 17.89 37.7459 18.9718C36.873 20.1301 35.942 21.2478 35.0777 22.4112C34.2835 23.4746 34.3463 24.01 35.3324 24.9335Z" fill="#CACACA"/>
</svg>
